<svg width="30" height="30" viewBox="0 0 30 30" fill="none" xmlns="http://www.w3.org/2000/svg">
<path d="M28.9286 1.55852e-06H21.2679C19.6239 1.55852e-06 18.0167 0.602051 16.6339 1.73783L15 3.0743L13.3661 1.73783C11.9846 0.602269 10.3757 -0.00111922 8.73214 1.55852e-06H1.07143C0.478795 1.55852e-06 0 0.610591 0 1.36636V25.6191C0 26.3749 0.478795 26.9855 1.07143 26.9855H8.73214C10.3761 26.9855 11.9833 27.5875 13.3661 28.7233L14.8527 29.9445C14.8962 29.9787 14.9464 30 14.9967 30C15.0469 30 15.0971 29.9829 15.1406 29.9445L16.6272 28.7233C18.0134 27.5875 19.6239 26.9855 21.2679 26.9855H28.9286C29.5212 26.9855 30 26.3749 30 25.6191V1.36636C30 0.610591 29.5212 1.55852e-06 28.9286 1.55852e-06ZM11.3839 16.7592C11.3839 16.9342 11.2768 17.0794 11.1462 17.0794H4.92522C4.79464 17.0794 4.6875 16.9342 4.6875 16.7592V14.8377C4.6875 14.6627 4.79464 14.5175 4.92522 14.5175H11.1429C11.2734 14.5175 11.3806 14.6627 11.3806 14.8377V16.7592H11.3839ZM11.3839 10.7814C11.3839 10.9564 11.2768 11.1016 11.1462 11.1016H4.92522C4.79464 11.1016 4.6875 10.9564 4.6875 10.7814V8.85995C4.6875 8.68489 4.79464 8.53971 4.92522 8.53971H11.1429C11.2734 8.53971 11.3806 8.68489 11.3806 8.85995V10.7814H11.3839ZM25.3125 16.7592C25.3125 16.9342 25.2054 17.0794 25.0748 17.0794H18.8538C18.7232 17.0794 18.6161 16.9342 18.6161 16.7592V14.8377C18.6161 14.6627 18.7232 14.5175 18.8538 14.5175H25.0714C25.202 14.5175 25.3092 14.6627 25.3092 14.8377V16.7592H25.3125ZM25.3125 10.7814C25.3125 10.9564 25.2054 11.1016 25.0748 11.1016H18.8538C18.7232 11.1016 18.6161 10.9564 18.6161 10.7814V8.85995C18.6161 8.68489 18.7232 8.53971 18.8538 8.53971H25.0714C25.202 8.53971 25.3092 8.68489 25.3092 8.85995V10.7814H25.3125Z" fill="#D5D2C6"/>
</svg>
