<svg width="30" height="30" viewBox="0 0 30 30" fill="none" xmlns="http://www.w3.org/2000/svg">
<path d="M0.62089 14.7542L14.2515 0.328544C14.3496 0.224397 14.4662 0.14177 14.5945 0.0853942C14.7229 0.0290184 14.8604 0 14.9994 0C15.1383 0 15.2759 0.0290184 15.4042 0.0853942C15.5325 0.14177 15.6491 0.224397 15.7473 0.328544L29.3779 14.7542C29.775 15.1748 30 15.7461 30 16.3419C30 17.5791 29.0503 18.5849 27.8821 18.5849H26.4459V28.8785C26.4459 29.4988 25.9727 30 25.387 30H17.1173V22.1493H13.411V30H4.61179C4.02606 30 3.55284 29.4988 3.55284 28.8785V18.5849H2.11665C1.55409 18.5849 1.01469 18.3501 0.617582 17.926C-0.206409 17.0498 -0.206411 15.6304 0.62089 14.7542Z" fill="#D5D2C6"/>
</svg>
