<svg width="26" height="28" viewBox="0 0 26 28" fill="none" xmlns="http://www.w3.org/2000/svg">
<path d="M18 20V26H2V2H12V0H2C1.46957 0 0.960859 0.210714 0.585786 0.585786C0.210714 0.960859 0 1.46957 0 2V26C0 26.5304 0.210714 27.0391 0.585786 27.4142C0.960859 27.7893 1.46957 28 2 28H18C18.5304 28 19.0391 27.7893 19.4142 27.4142C19.7893 27.0391 20 26.5304 20 26V20H18Z" fill="#D5D2C6"/>
<path d="M25.54 3.76L22.24 0.459996C21.9409 0.166833 21.5388 0.00262451 21.12 0.00262451C20.7012 0.00262451 20.2991 0.166833 20 0.459996L6 14.46V20H11.53L25.53 6C25.8232 5.70091 25.9874 5.2988 25.9874 4.88C25.9874 4.46119 25.8232 4.05908 25.53 3.76H25.54ZM10.7 18H8V15.3L17.44 5.85L20.15 8.56L10.7 18ZM21.56 7.15L18.85 4.44L21.12 2.17L23.83 4.88L21.56 7.15Z" fill="#D5D2C6"/>
</svg>
