<svg width="19" height="49" viewBox="0 0 19 49" fill="none" xmlns="http://www.w3.org/2000/svg">
<path d="M1.44992 20.0667C2.39662 21.4667 3.57999 22.6333 5.23672 23.3333H14.7037C15.4138 23.1 15.8871 22.6333 16.3605 22.1667C18.7272 19.8333 19.6739 16.3333 18.4905 13.3L18.2539 12.8333C18.0172 12.1333 17.5438 11.6667 17.0705 11.2C16.8338 10.7333 16.3605 10.5 16.1238 10.0333C15.1771 9.33333 14.2304 8.63333 13.2837 7.7C11.1536 5.6 10.9169 2.33333 12.1003 0C10.9169 0.233333 9.73355 0.933333 8.78685 1.86667C5.23672 4.66667 3.81667 9.56667 5.4734 14V14.4667C5.4734 14.7 5.23672 14.9333 5.00005 15.1667C4.76337 15.4 4.29002 15.1667 4.05334 14.9333L3.81667 14.7C2.39662 12.8333 2.15994 10.0333 3.10664 7.7C0.976566 9.56667 -0.206811 12.6 0.0298642 15.6333C0.0298642 16.3333 0.266539 17.0333 0.503214 17.7333C0.503214 18.4333 0.976566 19.3667 1.44992 20.0667ZM10.2069 16.5667C10.4436 15.4 9.97023 14.4667 9.73355 13.5333C9.49688 12.6 9.49688 11.6667 9.97023 10.7333L10.6803 12.1333C11.627 13.5333 13.2837 14 13.757 15.8667V16.5667C13.757 17.7333 13.2837 18.9 12.5737 19.6C12.1003 19.8333 11.627 20.3 11.1536 20.3C9.73355 20.7667 8.07683 20.0667 7.13012 19.1333C9.02353 19.1333 9.97023 17.7333 10.2069 16.5667ZM16.5971 25.6667V30.3333H14.2304L11.8636 49H7.13012L4.76337 30.3333H2.39662V25.6667H16.5971Z" fill="#CE1212"/>
</svg>
